<?xml version="1.0" encoding="UTF-8"?>
<svg version="1.1" viewBox="0 0 2048 2048" width="1280" height="1280" xmlns="http://www.w3.org/2000/svg">
<path transform="translate(280)" d="m0 0h1080l13 7 10 9 419 419 6 12 2 20 1 957v581l-2 11-4 8-7 8-15 10-13 6h-1494l-18-10-10-8-7-9-3-7-1-5v-615l1-1338 4-18 8-16 7-9 8-6 12-6z" fill="#EDEBDF"/>
<path transform="translate(238,1426)" d="m0 0h1572v587l-4 9-8 10-15 10-13 6h-1494l-18-10-10-8-7-9-3-7-1-5v-582z" fill="#CA4E4D"/>
<path transform="translate(1015,253)" d="m0 0h17l9 4 6 4 10 9 11 13 11 15 5 11 4 17 1 9v36l-4 39-4 27-7 40-13 59v5l10 19 13 24 12 23 10 17 15 24 13 21 12 19 12 17 14 19 13 18 14 19 10 11 9 11 10 11 9 11 9 10 17-2 49-7 45-3h21l28 2 22 5 15 5 13 7 10 9 7 9 6 14 2 9v11l-2 12-6 16-5 10-10 15-14 15-12 9-16 8-13 5-19 3h-13l-17-3-17-5-19-8-14-7-33-22-13-10-12-11-11-9-8-7-4-1-63 15-37 10-57 17-36 12-49 17-30 12-39 16-9 4-12 23-23 45-13 25-15 25-14 22-11 16-13 16-8 10-9 10-12 12-8 7-15 10-12 6-13 4-12 1-17-3-16-8-13-10-11-12-11-18-6-16-2-11v-13l3-16 6-16 9-17 11-14 11-13 8-7 10-10 30-23 21-14 19-12 29-16 27-14 17-8 16-8 3-3 9-21 14-33 17-40 36-96 28-84 9-29 24-86-1-6-9-20-15-37-10-28-9-32-6-27-3-22-1-11v-20l2-19 6-21 8-17 7-10 11-11 10-6 15-5z" fill="#CA4E4D"/>
<path transform="translate(905,1569)" d="m0 0h71l41 2 23 3 23 6 18 8 19 10 14 10 15 13 8 8 15 20 9 17 8 20 6 22 3 26v28l-2 24-5 26-6 21-9 22-11 19-10 13-10 11-11 9-10 7-21 11-21 7-24 5-11 1-139 1-7-1-1-1v-366l1-1z" fill="#FEFEFC"/>
<path transform="translate(1370,7)" d="m0 0 4 1 8 7 420 420 1 3-6 1-252 1h-92l-80-1-1-1-1-40z" fill="#DBD7C9"/>
<path transform="translate(608,1569)" d="m0 0h55l29 1 22 3 20 6 17 8 18 12 11 10 7 8 10 15 6 13 5 16 2 14v20l-3 19-4 14-5 12-8 15-9 10-7 8-16 12-16 8-16 6-18 4-19 2-52 1-1 131-1 1-57 1-3-3v-365l1-1z" fill="#FEFDFC"/>
<path transform="translate(942,1615)" d="m0 0h39l27 2 20 4 17 5 16 8 11 7 14 12 10 13 8 14 6 18 3 16 2 18v25l-2 26-4 22-6 21-7 16-9 15-12 13-9 7-15 8-19 6-14 2-12 1h-64l-1-1v-277z" fill="#CA4E4D"/>
<path transform="translate(1399,1569)" d="m0 0h65l31 1 1 1v43l-1 1-168 1v115h152l1 1v40l-153 1v164l-4 2h-53l-5-1-1-6v-353l1-9z" fill="#FEFDFC"/>
<path transform="translate(1036,630)" d="m0 0 3 1 13 23 9 15 14 23 30 45 12 17 9 12 13 18 13 16 9 11 8 10 7 8v2l-39 10-40 11-47 14-36 12-32 11-40 15h-2v-5l4-9 11-27 12-30 19-52 14-40 18-54 11-37z" fill="#EDEBDF"/>
<path transform="translate(637,1615)" d="m0 0h47l18 2 15 5 10 6 10 9 7 10 5 13 3 18v15l-2 16-4 15-6 12-11 12-10 7-13 4-15 2h-54l-1-1v-144z" fill="#CA4E4D"/>
<path transform="translate(670,1422)" d="m0 0h77l133 1h495l335 1 100 1v1l-96 1h-1477v-2l43-1h39l294-1z" fill="#DBD7C9"/>
<path transform="translate(807,1033)" d="m0 0h2l-2 6-9 16-10 17-9 14-8 12-10 13-11 14-8 10-10 10-13 10-6 1-10-10-3-5-1-4v-9l5-12 9-11 10-11 5-6 14-11 15-12 20-13 21-13z" fill="#EDEBDF"/>
<path transform="translate(1013,319)" d="m0 0 4 2 7 11 5 13 3 14v28l-5 25-8 23-4-2-11-15-5-10-5-16-1-6v-17l3-16 6-16 6-11z" fill="#EDEBDF"/>
<path transform="translate(1350,865)" d="m0 0h41l15 2 11 4 1 3-8 14-9 8-13 5-14 2h-12l-9-2-11-6-13-10-13-11-5-5 1-1 21-2z" fill="#EDEBDF"/>
<path transform="translate(774,1062)" d="m0 0h5l2 4-4 3-4 1-8 5-10 8h-2l-2 4-4 4h-2l-2 4-11 12-8 7-5 5h-3l-2 5-1 3v7l3 4h6l7-3 2-1 2 2-3 1h5l2-1-2 4-8 9h-3l2-6-3-1-7 1-6-5-1-10 1-6 8-10 3-5 16-16h2l2-6 7-4 2-4 3-1 5-5 4-2 6-2v-2z" fill="#FEFEFC"/>
<path transform="translate(1069,553)" d="m0 0 4 2 1 2-1 3h2l3 4v2l1 4 4 6 15 27 1 3 2 2 1 7h2v2l3 1 2 5 3 3 1 6 3 1v2l4 4 3 6 1 4h2l2 5h2l6 11 4 6v2h2l2 4 6 10 3 7 3 3-1 3-5-5-12-18-13-21-15-24-12-20-30-56z" fill="#F6F5F1"/>
<path transform="translate(905,1569)" d="m0 0h71l25 1-4 2-60-1-54 1-1 6-1 359h-1v-366l1-1z" fill="#E3E0D3"/>
<path transform="translate(1338,867)" d="m0 0h9l1 2-5 3-4 4 1 6 4 3v2l4 2 12 7 2 3h-3l-1 2-12-5-7-3-11-9-1-3-2-2h6l5-7v-3h2z" fill="#FCFCFA"/>
<path transform="translate(1350,865)" d="m0 0h41l10 1v1h-63l-2 6-5 7h-4v3l-14-11-2-3 1-1 21-2z" fill="#E7E5D8"/>
<path transform="translate(963,848)" d="m0 0 2 4-4 8v7l-3 8-4 8h-2l-1 4-2-1v2h-2l1-8 11-27 1-3z" fill="#FAF9F6"/>
<path transform="translate(994,378)" d="m0 0h1l1 6 2 1v8l2 1-1 3 4 10 2 7h2l-1 4h-2l-5-10-5-16z" fill="#F6F5F1"/>
<path transform="translate(1173,722)" d="m0 0 5 5 8 12 6 7-1 2h-3l-12-17-4-5z" fill="#F3F2EC"/>
<path transform="translate(1344,895)" d="m0 0 9 3 10 3h8l16-2 4 1-17 3h-12l-9-2-9-5z" fill="#DCD9CB"/>
<path transform="translate(237 2e3)" d="m0 0h1l3 14 6 12 6 8-4-2-8-10-3-7-1-5z" fill="#F0EEE7"/>
<path transform="translate(1482,861)" d="m0 0 1 2 4 1v6l-2-3-1 4-1 9-1 2h-2v-8h2z" fill="#FAFAF7"/>
<path transform="translate(1019,690)" d="m0 0 1 2-6 18-2 2v-7l4-12h2z" fill="#F3F1EC"/>
<path transform="translate(1809 2e3)" d="m0 0h1v8l-4 9-6 7v-3l4-7 3-7z" fill="#F3F2EC"/>
<path transform="translate(1031,649)" d="m0 0 1 3 1 4-2 5-5 2 3-13z" fill="#F7F6F2"/>
<path transform="translate(1082,433)" d="m0 0h1l2 11-3 1-2 8h-1v-10l2-5z" fill="#FBFBF8"/>
<path transform="translate(896,998)" d="m0 0h2l-3 9-5 9h-2l2-6z" fill="#F4F2EC"/>
<path transform="translate(1161,707)" d="m0 0 1 2 4 2 3 4 2 5h-3l-7-10z" fill="#F1F0E9"/>
<path transform="translate(1069,553)" d="m0 0 4 2 1 2-1 3h2l-1 5-4-5-2-6z" fill="#F4F3ED"/>
<path transform="translate(994,378)" d="m0 0h1l1 6 2 1v8h-3l-1-1z" fill="#F9F8F4"/>
<path transform="translate(1013,319)" d="m0 0 4 2 2 3v3h-5l-2-2v-5z" fill="#F8F7F3"/>
<path transform="translate(1e3 741)" d="m0 0 1 2-4 11-2 5h-1l1-9 3-7z" fill="#F6F5F0"/>
<path transform="translate(1477,847)" d="m0 0 5 2 1 5-2 3h-2l-2-6z" fill="#F7F7F3"/>
<path transform="translate(982,797)" d="m0 0 1 3-4 9-2 5h-1v-6l4-9z" fill="#F6F5F0"/>
<path transform="translate(1074,481)" d="m0 0 2 2v5l-3 4-2 3 1-9z" fill="#FFFFFE"/>
<path transform="translate(963,848)" d="m0 0 2 4-2 4-5 2 2-8z" fill="#F7F6F2"/>
<path transform="translate(1070,500)" d="m0 0 2 1v3h-2l-1 6-2 2v-8z" fill="#FAF9F6"/>
<path transform="translate(1078,455)" d="m0 0h1l1 11-3 6h-1v-7z" fill="#FFFFFE"/>
<path transform="translate(1036,630)" d="m0 0 3 1 1 5-5 2v-6z" fill="#F6F5F1"/>
<path transform="translate(1076,562)" d="m0 0 2 2v2l1 4v3l-4-4-1-5z" fill="#F9F8F5"/>
<path transform="translate(1066,513)" d="m0 0h1v7l-2 8h-1v-10z" fill="#F6F5F0"/>
<path transform="translate(1015,700)" d="m0 0h1l-1 8-3 4v-7l1-3h2z" fill="#F6F5F1"/>
</svg>
